<?xml version="1.0" encoding="UTF-8"?>
<svg width="23px" height="14px" viewBox="0 0 23 14" version="1.1" xmlns="http://www.w3.org/2000/svg" xmlns:xlink="http://www.w3.org/1999/xlink">
    <title>logo-tg-footer-dark</title>
    <g id="Page-1" stroke="none" stroke-width="1" fill="none" fill-rule="evenodd">
        <g id="logo-tg-footer-dark" transform="translate(0, 0.1141)" fill="#F37057" fill-rule="nonzero">
            <path d="M22.96,8.5845926 C23,8.48192593 23,8.40725926 23,8.29525926 C23,8.15525926 22.96,8.00592593 22.96,7.9685926 C22.69,7.5765926 22.03,7.14725926 22,6.89525926 C21.96,6.10192593 22.12,5.27125926 22.12,4.4125926 C22.12,3.9085926 22.04,3.4045926 21.77,2.86325926 C21.65,2.61125926 21.23,2.10725926 21,2.06992593 C20.46,1.92992593 19.38,1.85525926 19.26,1.85525926 C17.99,1.85525926 16.79,1.96725926 15.48,1.96725926 C15.33,1.96725926 14.36,2.1445926 14.21,2.1445926 C12.86,2.1445926 11.01,2.06992593 9.62,1.7525926 C9.26,1.63125926 8.8,1.45392593 8.49,1.45392593 C8.18,1.45392593 7.56,1.63125926 7.14,1.63125926 C6.48,1.63125926 5.79,1.5285926 5.48,1.37925926 C5.33,1.31392593 5.4,1.1645926 5.4,1.1645926 C5.55,0.987259256 5.75,0.875259259 5.75,0.660592593 C5.75,0.585925926 5.71,0.371259259 5.48,0.371259259 C5.33,0.371259259 4.79,0.585925926 4.63,0.585925926 C4.59,0.585925926 4.59,0.585925926 4.48,0.585925926 C4.32,0.371259259 4.13,0.0165925928 3.55,0.0165925928 C3.47,0.0165925928 3.13,0.0912592588 2.82,0.193925926 C2.59,0.193925926 2.36,0.193925926 2.32,0.193925926 C2.17,0.193925926 1.93,0.193925926 1.86,0.156592593 C1.75,0.156592593 1.59,0.0165925928 1.47,0.0165925928 C1.47,0.0165925928 1.32,-0.0207407409 1.28,0.0165925928 C1.16,0.0912592588 1.28,0.268592593 1.28,0.268592593 C1.24,0.408592593 1.63,0.697925926 1.82,0.735259259 C2.05,0.809925926 2.36,0.772592593 2.59,0.847259259 C2.55,1.0245926 2.2,1.20192593 2.12,1.31392593 C1.97,1.5285926 1.74,1.85525926 1.47,2.10725926 C0.81,2.71392593 0,3.1805926 0,3.36725926 C0,3.4325926 0.12,3.61925926 0.15,3.7965926 C0.23,3.97392593 0.27,4.1605926 0.38,4.26325926 C0.53,4.37525926 0.84,4.37525926 1.15,4.40325926 C1.54,4.4405926 1.92,4.51525926 2,4.51525926 C2.15,4.51525926 2.46,4.4405926 2.62,4.4405926 C3.31,4.4405926 3.82,4.6925926 4.16,5.0565926 C4.47,5.38325926 4.7,5.8125926 5.01,6.24192593 C5.16,6.49392593 5.36,6.7085926 5.55,6.9605926 C5.74,7.24992593 6.01,7.6045926 6.05,7.89392593 C6.09,8.1085926 6.05,8.32325926 6.17,8.50992593 C6.32,8.7245926 6.36,8.87392593 6.63,8.93925926 C6.82,8.9765926 7.02,8.90192593 7.17,8.93925926 C7.25,8.9765926 7.32,8.9765926 7.32,9.04192593 C7.4,9.18192593 7.32,9.3685926 7.32,9.54592593 C7.36,9.79792593 7.47,10.1899259 7.55,10.5539259 C7.63,10.8805926 7.59,11.2352592 7.59,11.3099259 C7.59,11.7392592 7.59,12.1779259 7.28,12.5699259 C7.2,12.6819259 6.89,12.8219259 6.62,12.9992592 C6.39,13.1392592 6.23,13.2885926 6.23,13.4285926 C6.23,13.6059259 6.85,13.5685926 7.08,13.5685926 C7.39,13.5685926 7.66,13.5685926 7.74,13.4285926 C7.82,13.3539259 7.78,13.2885926 7.9,13.1392592 C7.98,13.0645926 8.09,12.9619259 8.25,12.8872592 C8.21,12.5232592 8.21,12.0939259 8.25,11.7672592 C8.25,11.6272592 8.56,10.3672592 8.98,10.3672592 C9.13,10.3672592 9.1,10.4045926 9.1,10.4045926 C9.14,10.6939259 9.25,11.1979259 9.25,11.3379259 C9.25,11.8045926 9.1,12.3085926 8.83,12.6352592 C8.68,12.8499259 8.1,13.0645926 8.1,13.1765926 C8.1,13.3165926 8.18,13.2885926 8.18,13.3539259 C8.29,13.3912592 8.41,13.4285926 8.57,13.4285926 C8.72,13.4285926 9.46,13.3539259 9.84,13.2885926 C9.92,13.1485926 9.95,12.8965926 10.07,12.7472592 C10.15,12.6072592 10.34,12.5699259 10.42,12.4205926 C10.54,12.2432592 10.3,11.8792592 10.27,11.7392592 C10.23,10.9832592 10.35,10.2272592 10.46,9.47125926 C10.5,9.21925926 10.81,8.81792593 11.12,8.78992593 C11.35,8.7525926 11.66,8.71525926 11.85,8.71525926 C12.27,8.71525926 13.7,9.10725926 14.36,9.10725926 C14.51,9.10725926 14.51,9.0325926 14.63,9.0325926 C14.75,9.0325926 15.09,9.1725926 15.09,9.20992593 C15.32,9.4245926 15.59,9.63925926 15.78,9.7885926 C15.82,9.7885926 15.86,9.7885926 15.86,9.86325926 C15.97,10.0405926 16.09,10.2645926 16.25,10.2645926 C16.4,10.2272592 16.44,10.0125926 16.6,9.97525923 C16.6,9.97525923 16.91,9.93792593 16.95,9.97525923 C17.07,10.0499259 17.18,10.3019259 17.34,10.3019259 C17.49,10.3019259 17.57,10.1619259 17.57,10.0499259 C17.57,10.0125926 17.65,9.97525923 17.68,9.93792593 C17.72,9.90059263 17.76,9.86325926 17.83,9.86325926 C17.98,9.86325926 18.1,9.93792593 18.1,10.0032592 C18.25,10.3952592 17.91,11.0112592 17.64,11.4032592 C17.52,11.5805926 17.49,11.9445926 17.37,12.0845926 C17.18,12.3739259 16.91,12.6259259 16.64,12.8032592 C16.56,12.8405926 16.45,12.9152592 16.37,12.9805926 C16.29,13.0552592 16.25,13.1579259 16.25,13.2325926 C16.25,13.2325926 16.29,13.2699259 16.56,13.2699259 L17.52,13.3072592 C17.71,13.3072592 17.98,13.1299259 18.02,13.0552592 C18.06,12.9525926 18.02,12.8405926 18.06,12.7285926 C18.21,12.6539259 18.45,12.4765926 18.52,12.2992592 C18.75,11.6832592 18.83,10.5725926 19.56,9.60192593 C19.56,9.60192593 19.6,9.5645926 19.64,9.5645926 C19.68,9.5645926 19.72,9.60192593 19.72,9.60192593 C20.11,10.1432592 20.38,10.7219259 20.38,11.3285926 C20.38,11.4685926 20.3,12.2245926 20.19,12.6259259 C20.15,12.7379259 20.04,12.9152592 19.92,12.9899259 C19.77,13.1019259 19.57,13.2045926 19.46,13.3165926 C19.34,13.3912592 19.23,13.4939259 19.23,13.5685926 C19.23,13.6712592 19.65,13.7459259 19.81,13.7459259 L20.89,13.7085926 C21.32,13.6712592 21.28,13.2419259 21.24,12.9152592 C21.2,12.8779259 21.2,12.7752592 21.24,12.7379259 C21.28,12.6632592 21.43,12.6259259 21.43,12.5979259 C21.43,12.0939259 21.32,11.6272592 21.32,11.1232592 C21.28,10.6565926 21.36,10.1899259 21.4,9.71392593 C21.48,9.34992593 21.71,8.84592593 21.71,8.70592593 C21.71,8.59392593 21.48,8.37925926 21.33,8.12725926 C21.21,7.94992593 21.17,7.76325926 21.17,7.62325926 C21.17,7.5205926 21.36,6.9045926 21.48,6.43792593 C21.56,5.97125926 21.67,5.5045926 21.67,5.03792593 C21.82,5.28992593 21.59,6.29792593 21.59,6.40992593 C21.63,6.54992593 21.55,6.7365926 21.47,6.95125926 C21.24,7.56725926 21.89,8.2485926 22.05,8.6405926 C22.17,8.92992593 22.13,9.29392593 22.2,9.54592593 C22.28,9.72325926 22.55,9.90992593 22.7,9.90992593 C22.85,9.90992593 22.82,9.90992593 22.85,9.83525926 C22.73,9.6205926 22.7,9.33125926 22.73,9.04192593 C22.77,8.87392593 22.88,8.73392593 22.96,8.5845926 Z" id="Path"></path>
        </g>
    </g>
</svg>